<!DOCTYPE svg PUBLIC "-//W3C//DTD SVG 20010904//EN" "http://www.w3.org/TR/2001/REC-SVG-20010904/DTD/svg10.dtd">
<svg version="1.0" xmlns="http://www.w3.org/2000/svg" width="2em" height="2em" viewBox="0 0 1770 1760" preserveAspectRatio="xMidYMid meet"><g fill="#ffffff" stroke="none">
 <path d="M464 1705 c-16 -19 -45 -55 -64 -80 -19 -25 -51 -65 -71 -88 -49 -59 -139 -174 -139 -179 0 -2 14 -14 30 -27 30 -21 31 -21 53 -4 13 10 57 56 99 103 42 47 104 114 137 150 34 35 61 68 61 73 0 17 -51 87 -64 87 -8 0 -27 -16 -42 -35z"/>
 <path d="M504 1522 c-34 -37 -94 -104 -133 -149 l-71 -81 30 -22 c16 -12 30 -28 30 -35 0 -17 146 -168 177 -184 14 -7 109 -11 278 -11 l257 0 35 35 c44 44 43 80 -6 112 -31 21 -45 23 -167 23 l-134 0 0 26 0 25 148 -3 c122 -2 152 -6 172 -21 14 -9 48 -33 75 -52 67 -48 104 -77 124 -97 9 -10 34 -24 55 -33 35 -15 40 -15 63 0 13 9 32 33 40 53 l15 36 -58 51 c-32 27 -86 78 -120 113 -34 34 -67 62 -72 62 -6 0 -17 6 -24 13 -7 7 -39 36 -71 65 l-57 52 -214 0 -214 0 -34 31 c-18 17 -40 37 -48 44 -13 12 -24 4 -76 -53z"/>
 <path d="M867 953 c-4 -3 -7 -23 -7 -44 0 -70 -18 -82 -88 -58 -28 10 -35 8 -70 -21 l-39 -31 13 -57 c8 -31 14 -67 14 -80 0 -21 -4 -23 -37 -20 l-38 3 0 -70 0 -69 45 -11 c54 -13 64 -41 31 -86 l-21 -29 25 -50 c27 -54 26 -53 112 -41 l52 7 3 -35 3 -36 70 0 70 0 3 38 c2 27 7 37 16 34 8 -3 33 -8 57 -12 41 -6 46 -4 78 29 33 34 34 37 23 74 -20 65 -16 91 15 103 14 5 36 8 47 7 20 -3 21 2 21 71 l0 74 -48 14 c-39 11 -47 17 -42 31 3 9 11 38 17 63 11 46 11 46 -31 88 l-42 42 -54 -25 -53 -24 -6 21 c-3 12 -6 36 -6 52 0 17 -5 36 -12 43 -13 13 -110 17 -121 5z m142 -334 c13 -61 0 -123 -29 -139 -21 -11 -63 -13 -97 -4 -31 9 -49 87 -32 142 13 45 21 49 96 51 l51 1 11 -51z"/>
 <path d="M1327 494 c-4 -4 -7 -18 -7 -31 0 -20 -4 -22 -25 -17 -16 4 -35 0 -51 -11 -22 -14 -25 -22 -22 -63 2 -36 0 -47 -12 -47 -19 0 -22 -89 -2 -91 6 -1 17 -2 22 -3 14 -1 13 -27 -2 -50 -19 -31 13 -71 56 -71 26 0 35 -5 39 -21 5 -17 12 -20 49 -17 34 2 44 7 46 23 2 17 9 20 35 17 50 -5 72 17 72 75 0 26 5 48 10 48 23 1 31 16 27 51 -3 25 -10 38 -23 41 -15 4 -17 12 -13 47 5 35 2 44 -19 64 -20 19 -28 21 -51 12 -36 -13 -34 -14 -38 18 -3 24 -8 27 -43 30 -23 2 -44 0 -48 -4z m86 -191 c8 -45 -8 -73 -43 -73 -23 0 -31 5 -36 25 -3 14 -3 36 0 50 5 20 12 25 40 25 29 0 34 -4 39 -27z"/>
 </g>

<g fill="#fedc3d" style=" opacity:0;" stroke="none">
 <path d="M0 880 l0 -880 885 0 885 0 0 880 0 880 -885 0 -885 0 0 -880z m534 805 l19 -34 -30 -34 c-16 -18 -58 -64 -94 -102 -198 -211 -175 -192 -198 -171 -20 18 -20 19 42 98 34 45 72 87 85 95 12 9 22 21 22 29 0 7 17 33 38 58 20 24 45 56 55 70 24 35 39 33 61 -9z m102 -184 c15 -20 22 -21 234 -21 l220 0 52 -51 c29 -28 70 -62 90 -75 20 -13 60 -47 90 -76 29 -29 74 -71 101 -94 46 -39 47 -41 36 -72 -23 -65 -66 -62 -154 11 -54 46 -147 111 -198 140 -27 15 -54 17 -177 15 l-145 -3 0 -40 0 -40 145 -5 c91 -3 153 -10 168 -18 29 -17 29 -56 -3 -87 l-24 -25 -259 0 -259 0 -39 31 c-50 40 -134 131 -134 146 0 6 -13 22 -28 35 l-29 23 70 80 c38 44 92 103 119 132 l49 52 30 -18 c17 -10 37 -28 45 -40z m347 -617 c3 -31 10 -61 15 -66 5 -5 31 2 63 16 l54 26 34 -35 35 -34 -17 -61 c-10 -34 -15 -65 -12 -69 2 -5 25 -14 50 -21 l45 -13 0 -51 0 -51 -48 -15 c-40 -13 -47 -19 -50 -44 -2 -16 2 -49 9 -73 11 -42 11 -44 -16 -69 -27 -25 -31 -26 -83 -15 -30 6 -58 8 -63 5 -5 -3 -9 -21 -9 -40 l0 -34 -54 0 -55 0 -3 38 c-2 25 -8 37 -18 36 -8 0 -41 -4 -72 -7 l-58 -7 -20 40 -21 41 21 26 c38 49 19 94 -47 108 -32 6 -33 8 -33 56 0 46 2 49 26 49 14 0 34 4 44 10 17 9 17 13 1 90 -10 44 -14 80 -9 80 4 0 17 9 29 21 17 17 25 19 51 10 71 -25 108 0 108 71 l0 38 49 0 48 0 6 -56z m417 -429 c0 -31 18 -39 54 -25 43 16 60 -3 52 -57 -5 -36 -2 -45 14 -55 26 -17 26 -54 -1 -69 -19 -10 -21 -17 -16 -60 6 -45 4 -49 -17 -55 -12 -3 -36 -4 -52 -2 -24 2 -30 -1 -32 -19 -5 -33 -59 -33 -64 -1 -3 20 -8 22 -45 20 -35 -3 -42 0 -48 18 -4 12 -2 27 4 33 21 21 13 57 -15 67 -19 7 -25 16 -22 33 2 12 10 22 18 22 12 0 14 12 12 57 -3 53 -1 58 20 62 13 3 34 4 48 3 20 -2 26 3 28 26 3 23 8 27 33 27 24 0 29 -4 29 -25z"/>
 <path d="M871 677 c-37 -19 -55 -80 -41 -144 13 -62 27 -75 88 -80 59 -6 97 20 112 77 11 41 -1 122 -22 147 -13 17 -105 17 -137 0z"/>
 <path d="M1320 324 c-6 -14 -10 -34 -10 -44 0 -10 4 -30 10 -44 8 -22 16 -26 50 -26 37 0 42 3 55 33 26 62 2 107 -56 107 -33 0 -41 -4 -49 -26z"/>
 </g>

</svg>